<?xml version='1.0' encoding='iso-8859-1'?>
<svg version="1.1" xmlns="http://www.w3.org/2000/svg" viewBox="0 0 297 297" xmlns:xlink="http://www.w3.org/1999/xlink" enable-background="new 0 0 297 297">
  <g>
    <path d="m231,90.5v-82h-165v82h-66v198h297v-198h-66zm-132-49h99v49h-99v-49zm-16.167,115c-9.112,0-16.5-7.388-16.5-16.5s7.388-16.5 16.5-16.5c9.112,0 16.5,7.388 16.5,16.5s-7.388,16.5-16.5,16.5zm133,0c-9.112,0-16.5-7.388-16.5-16.5s7.388-16.5 16.5-16.5c9.112,0 16.5,7.388 16.5,16.5s-7.388,16.5-16.5,16.5z"/>
  </g>
</svg>
