<?xml version="1.0" encoding="UTF-8"?>
<svg width="267px" height="22px" viewBox="0 0 267 22" version="1.1" xmlns="http://www.w3.org/2000/svg" xmlns:xlink="http://www.w3.org/1999/xlink">
    <!-- Generator: Sketch 46.2 (44496) - http://www.bohemiancoding.com/sketch -->
    <title>cg-logo-black 2</title>
    <desc>Created with Sketch.</desc>
    <defs></defs>
    <g id="Page-1" stroke="none" stroke-width="1" fill="none" fill-rule="evenodd">
        <g id="cg-logo-black" fill-rule="nonzero" fill="#0E0E0E">
            <path d="M17.1291919,14.9273834 C16.9609588,15.7167879 16.6856682,16.4705418 16.3237121,17.1988311 C15.9617559,17.9220274 15.5131342,18.5688298 14.967651,19.1341452 C14.4425597,19.6994606 13.8257049,20.1527316 13.1170866,20.4990509 C12.4237621,20.8453703 11.6335762,21.01853 10.7771166,21.01853 C9.7014441,21.01853 8.7787109,20.865742 8.0038188,20.5601661 C7.2289268,20.2494973 6.5967781,19.7147394 6.1022746,18.9457067 C5.6179671,18.1817669 5.2611089,17.1479017 5.0266022,15.8441112 C4.8073893,14.6014358 4.7003318,13.0379057 4.6901359,11.1687997 C4.6952339,9.7275 4.7513116,8.4033377 4.853271,7.1861269 C4.9756224,5.912894 5.2356191,4.8230065 5.643457,3.8960929 C6.0512949,2.9844581 6.6681497,2.2663547 7.4736296,1.7468756 C8.2791094,1.2324895 9.3802718,0.9676571 10.7771166,0.9676571 C11.8120053,0.9676571 12.6735628,1.1560955 13.3821812,1.5278796 C14.0806036,1.8996636 14.6617726,2.3834921 15.1307862,2.9640864 C15.5997998,3.5497735 15.9821478,4.191483 16.2829283,4.8892146 C16.5837087,5.5869463 16.8335094,6.2490275 17.0476243,6.880551 L17.4197764,6.880551 L17.4197764,0.8046832 L16.9609588,0.8046832 C16.8997831,1.0746086 16.8029216,1.2426754 16.6652763,1.3037906 C16.537827,1.3699987 16.339006,1.4107421 16.0688134,1.4107421 C15.8190127,1.4107421 15.5131342,1.349627 15.1511781,1.2324895 C14.779026,1.1153521 14.3711881,0.9931217 13.9225664,0.8759843 C13.4739447,0.748661 12.9896372,0.6315236 12.45435,0.5143861 C11.9343566,0.4023416 11.3582856,0.3361335 10.7465287,0.3361335 C9.5179171,0.3361335 8.2740115,0.595873 6.999518,1.1000733 C5.7301225,1.6093665 4.5728825,2.3325628 3.5328958,3.2696623 C2.5031051,4.2067618 1.6517435,5.3373926 0.9890069,6.6615549 C0.3313683,7.9806243 0,9.4524816 0,11.0771269 C0,12.569356 0.2956825,13.9648193 0.8921454,15.2482381 C1.4835104,16.531657 2.2736963,17.6419161 3.2627032,18.5892015 C4.2415142,19.5364868 5.3987542,20.2851478 6.6936396,20.8249986 C8.0038188,21.3750352 9.3496839,21.6500536 10.7465287,21.6500536 C11.3582856,21.6500536 11.9547485,21.5940313 12.5053297,21.4921727 C13.0559109,21.3852211 13.5657082,21.2629907 14.0449178,21.1458533 C14.5088334,21.0236229 14.9319652,20.9064855 15.2888234,20.8046269 C15.6558775,20.6976753 15.95156,20.6365601 16.1860668,20.6365601 C16.4511614,20.6365601 16.6550804,20.6874894 16.7876277,20.7689763 C16.915077,20.8555562 17.0323304,21.01853 17.1291919,21.2477119 L17.5880096,21.2477119 L17.5880096,14.9273834 L17.1291919,14.9273834 Z M93.889383,1.568623 L93.889383,0.8046832 L96.530134,0.8046832 C97.508945,0.8046832 98.487756,0.7944974 99.461469,0.7588469 C100.44028,0.7333822 101.419091,0.7130105 102.392804,0.7130105 C103.254361,0.7130105 104.171996,0.7741257 105.125317,0.8810772 C106.083737,1.0033076 107.026862,1.2121178 107.975085,1.5024149 C108.908014,1.8028979 109.805257,2.2001466 110.646423,2.694161 C111.482491,3.1983612 112.242089,3.8298848 112.889532,4.5938246 C113.536974,5.3577644 114.05187,6.2643063 114.439316,7.3185432 C114.821664,8.3727801 115.015387,9.6052696 115.015387,11.0211047 C115.015387,12.4216609 114.821664,13.6439646 114.439316,14.6982015 C114.05187,15.7524384 113.542072,16.6589803 112.899727,17.428013 C112.257383,18.1919528 111.528373,18.8285693 110.702501,19.3276766 C109.876629,19.821691 109.020169,20.2087538 108.133122,20.5143297 C107.235879,20.8097198 106.353929,21.01853 105.482176,21.1305745 C104.61552,21.2477119 103.804942,21.3037342 103.050442,21.3037342 C101.964574,21.3037342 100.878705,21.2935483 99.787739,21.2731766 C98.706968,21.2528049 97.626198,21.2477119 96.530134,21.2477119 L93.889383,21.2477119 L93.889383,20.4786792 L96.530134,20.4786792 L96.530134,1.568623 L93.889383,1.568623 Z M102.290844,20.7282329 C103.514358,20.7282329 104.549246,20.5907237 105.421,20.2953337 C106.282558,20.0050366 107.001372,19.6128808 107.597835,19.1188664 C108.1892,18.6197591 108.658213,18.0544436 109.009973,17.4127342 C109.356636,16.7761177 109.62173,16.1038507 109.795061,15.3959332 C109.973491,14.6931086 110.090744,13.9953769 110.146822,13.2874594 C110.207997,12.5795418 110.233487,11.9225536 110.233487,11.3063088 C110.233487,9.7886151 110.146822,8.4135235 109.948001,7.181034 C109.764474,5.9587303 109.392322,4.9044934 108.836642,4.0336021 C108.280963,3.1627107 107.500973,2.4904437 106.50177,2.016801 C105.492372,1.5482513 104.177094,1.3190694 102.540645,1.3190694 C102.168493,1.3190694 101.832026,1.3190694 101.531246,1.3292552 C101.230465,1.3394411 100.985763,1.3598128 100.797138,1.4005563 L100.797138,20.646746 C101.342621,20.7027682 101.837124,20.7282329 102.290844,20.7282329 Z M165.984929,12.9767905 L165.984929,14.0157486 L168.946851,14.0157486 L168.946851,14.8357107 C168.946851,15.7218808 168.90097,16.531657 168.829598,17.275225 C168.74803,18.023886 168.564503,18.6706884 168.294311,19.2156321 C168.013922,19.7656688 167.621378,20.1883821 167.096287,20.5092368 C166.591587,20.8249986 165.882969,20.9879724 165.00102,20.9879724 C163.930445,20.9879724 163.01281,20.8249986 162.23282,20.5092368 C161.45283,20.1883821 160.825779,19.673996 160.336374,18.9406138 C159.84187,18.2174175 159.485012,17.2548533 159.260701,16.0732931 C159.021096,14.88664 158.908941,13.4147827 158.908941,11.6780929 L158.908941,9.6663848 C158.908941,8.5968691 158.980313,7.5375392 159.11286,6.4934882 C159.240309,5.4545301 159.530894,4.5225235 159.964221,3.7076544 C160.392451,2.8978783 161.009306,2.2357971 161.814786,1.7265039 C162.615168,1.2223037 163.680644,0.9676571 165.00102,0.9676571 C166.668057,0.9523783 168.008824,1.4616715 168.997831,2.5057225 C169.997034,3.5497735 170.741338,5.0063521 171.24094,6.880551 L171.669169,6.880551 L171.669169,0.8046832 L171.179764,0.8046832 C171.088,1.0338652 170.980943,1.1917461 170.873885,1.273233 C170.756632,1.3598128 170.557811,1.4107421 170.297814,1.4107421 C170.042916,1.4107421 169.737037,1.349627 169.375081,1.2324895 C169.013125,1.1153521 168.595091,0.9931217 168.131176,0.8759843 C167.677456,0.748661 167.182952,0.6315236 166.637469,0.5143861 C166.102182,0.4023416 165.556699,0.3361335 164.970432,0.3361335 C163.746918,0.3361335 162.497914,0.595873 161.223421,1.1000733 C159.948928,1.6093665 158.796785,2.3325628 157.756799,3.2696623 C156.72191,4.2067618 155.880744,5.3373926 155.218008,6.6615549 C154.560369,7.9806243 154.229001,9.4524816 154.229001,11.0771269 C154.229001,12.569356 154.519585,13.9648193 155.121146,15.2482381 C155.707413,16.531657 156.497599,17.6419161 157.491704,18.5892015 C158.475613,19.5364868 159.617559,20.2851478 160.922641,20.8249986 C162.222624,21.3750352 163.578685,21.6500536 164.970432,21.6500536 C165.857479,21.6500536 166.606881,21.5532879 167.233932,21.3750352 C167.855885,21.1967826 168.406466,20.9981583 168.890774,20.7893481 C169.359787,20.5805379 169.808409,20.3819135 170.221345,20.193475 C170.634281,20.0101295 171.072706,19.9235496 171.531524,19.9235496 C171.755835,19.9235496 171.964852,19.9795719 172.153477,20.0814305 C172.331906,20.1883821 172.433865,20.3615418 172.479747,20.5907237 L172.99974,20.5907237 L172.99974,14.0157486 L174.870697,14.0157486 L174.870697,12.9767905 L165.984929,12.9767905 Z M179.943181,6.6615549 C180.611015,5.3373926 181.452181,4.2067618 182.492168,3.2696623 C183.527056,2.3325628 184.684296,1.6093665 185.963888,1.1000733 C187.248577,0.595873 188.507777,0.3361335 189.736388,0.3361335 C191.056764,0.3361335 192.356747,0.595873 193.646534,1.0898874 C194.946518,1.5889948 196.09866,2.2969123 197.097863,3.21364 C198.107261,4.1354607 198.928035,5.2508128 199.549988,6.5596963 C200.166843,7.8736727 200.477819,9.350623 200.477819,10.99564 C200.477819,12.4318468 200.187235,13.7967526 199.600968,15.0903573 C199.019799,16.378869 198.234711,17.5145928 197.245704,18.4924358 C196.261795,19.4651858 195.114751,20.2342185 193.830061,20.8046269 C192.530078,21.3648494 191.163821,21.6500536 189.736388,21.6500536 C188.319152,21.6500536 186.952895,21.3750352 185.647813,20.8249986 C184.34783,20.2851478 183.195688,19.5364868 182.211779,18.5892015 C181.22787,17.6419161 180.437684,16.531657 179.846319,15.2482381 C179.244758,13.9648193 178.954174,12.569356 178.954174,11.0771269 C178.954174,9.4524816 179.285542,7.9806243 179.943181,6.6615549 Z M184.098029,15.935784 C184.32234,17.2192028 184.6741,18.2428821 185.15331,18.996636 C185.637617,19.7656688 186.254472,20.2902407 187.01407,20.5907237 C187.773669,20.8912067 188.67601,21.0389017 189.736388,21.0389017 C191.112841,21.0389017 192.208906,20.7893481 192.993994,20.269869 C193.78418,19.7554829 194.380643,19.0373795 194.778284,18.1257447 C195.16573,17.2192028 195.410433,16.1445942 195.522589,14.88664 C195.61945,13.6439646 195.675528,12.2943376 195.675528,10.8326662 C195.675528,9.5186897 195.634744,8.2658285 195.548079,7.0689895 C195.461413,5.8823364 195.221808,4.8230065 194.829264,3.9164646 C194.431622,3.0099228 193.835159,2.2867264 193.044973,1.7468756 C192.244592,1.2172107 191.138331,0.9472853 189.736388,0.9472853 C188.410915,0.9472853 187.365831,1.2019319 186.575645,1.6959463 C185.785459,2.1950537 185.188996,2.8927853 184.770962,3.7891413 C184.363124,4.6956832 184.082735,5.760106 183.960384,7.0027814 C183.827837,8.2352709 183.766661,9.5950837 183.766661,11.0771269 C183.766661,13.0328128 183.868621,14.6523651 184.098029,15.935784 Z M205.667556,6.6615549 C206.330293,5.3373926 207.181655,4.2067618 208.216543,3.2696623 C209.246334,2.3325628 210.403574,1.6093665 211.683166,1.1000733 C212.972953,0.595873 214.232152,0.3361335 215.455666,0.3361335 C216.776041,0.3361335 218.076025,0.595873 219.381106,1.0898874 C220.670893,1.5889948 221.817937,2.2969123 222.827336,3.21364 C223.831637,4.1354607 224.642215,5.2508128 225.274364,6.5596963 C225.891219,7.8736727 226.202195,9.350623 226.202195,10.99564 C226.202195,12.4318468 225.916708,13.7967526 225.325343,15.0903573 C224.749272,16.378869 223.959086,17.5145928 222.97008,18.4924358 C221.986171,19.4651858 220.839126,20.2342185 219.544241,20.8046269 C218.254454,21.3648494 216.888197,21.6500536 215.455666,21.6500536 C214.038429,21.6500536 212.672172,21.3750352 211.372189,20.8249986 C210.072206,20.2851478 208.920064,19.5364868 207.941253,18.5892015 C206.957344,17.6419161 206.16206,16.531657 205.570695,15.2482381 C204.974232,13.9648193 204.673452,12.569356 204.673452,11.0771269 C204.673452,9.4524816 205.00482,7.9806243 205.667556,6.6615549 Z M209.817307,15.935784 C210.051814,17.2192028 210.398476,18.2428821 210.882784,18.996636 C211.356895,19.7656688 211.97375,20.2902407 212.72825,20.5907237 C213.498044,20.8912067 214.410582,21.0389017 215.455666,21.0389017 C216.842315,21.0389017 217.938379,20.7893481 218.713271,20.269869 C219.508555,19.7554829 220.09992,19.0373795 220.497562,18.1257447 C220.890106,17.2192028 221.139907,16.1445942 221.241866,14.88664 C221.343826,13.6439646 221.394806,12.2943376 221.394806,10.8326662 C221.394806,9.5186897 221.354022,8.2658285 221.267356,7.0689895 C221.180691,5.8823364 220.946184,4.8230065 220.55364,3.9164646 C220.155998,3.0099228 219.559535,2.2867264 218.764251,1.7468756 C217.968967,1.2172107 216.862707,0.9472853 215.455666,0.9472853 C214.140389,0.9472853 213.090206,1.2019319 212.30002,1.6959463 C211.509834,2.1950537 210.913372,2.8927853 210.500436,3.7891413 C210.0875,4.6956832 209.807111,5.760106 209.68476,7.0027814 C209.542017,8.2352709 209.485939,9.5950837 209.485939,11.0771269 C209.485939,13.0328128 209.592996,14.6523651 209.817307,15.935784 Z M244.661958,12.2892447 C244.3051,11.6373494 243.841184,11.0771269 243.265113,10.623856 C242.689042,10.1654921 242.036501,9.7886151 241.292197,9.4881322 C240.552991,9.1876492 239.798491,8.9228167 239.023599,8.673263 C238.248707,8.4237094 237.489109,8.1843416 236.749903,7.9551596 C236.015794,7.7157918 235.363254,7.4509594 234.787183,7.1351976 C234.206014,6.8194358 233.747196,6.4374659 233.38524,5.9943809 C233.05897,5.5767604 232.885639,5.0623743 232.865247,4.4359437 C232.885639,4.038695 232.9825,3.6414463 233.176223,3.2594764 C233.380142,2.8316701 233.691118,2.4547932 234.093858,2.1084738 C234.501696,1.7672474 234.9962,1.4922291 235.577369,1.2783259 C236.163636,1.0695157 236.836568,0.9625641 237.601264,0.9625641 C238.539291,0.9625641 239.314183,1.125538 239.936136,1.4514856 C240.547893,1.7774332 241.047495,2.2052395 241.450235,2.7247186 C241.847876,3.2492906 242.189441,3.8502565 242.449437,4.4919659 C242.699238,5.1489542 242.943941,5.8059424 243.178448,6.4731165 L243.5506,6.4731165 L243.5506,0.8046832 L243.09688,0.8046832 C243.000019,1.0338652 242.908255,1.1917461 242.821589,1.273233 C242.729826,1.3598128 242.551397,1.4107421 242.286302,1.4107421 C242.056893,1.4107421 241.807093,1.349627 241.526704,1.2324895 C241.246316,1.1153521 240.925143,0.9931217 240.563187,0.8759843 C240.196133,0.748661 239.767903,0.6315236 239.29889,0.5143861 C238.814582,0.4023416 238.258903,0.3361335 237.631852,0.3361335 C236.632649,0.3361335 235.704818,0.5143861 234.853456,0.8454267 C233.996997,1.1815602 233.278183,1.6195523 232.661328,2.1644961 C232.049571,2.7145327 231.565263,3.3409633 231.218601,4.0488809 C230.871939,4.7567984 230.703706,5.4901806 230.703706,6.2541204 C230.703706,7.2879856 230.866841,8.153784 231.208405,8.8413298 C231.539773,9.5288756 231.988395,10.1145628 232.544074,10.5780196 C233.099753,11.0516622 233.737,11.4285392 234.440521,11.7239293 C235.149139,12.0244122 235.878149,12.2841518 236.627551,12.5031478 C237.366758,12.7221439 238.100866,12.94114 238.809484,13.1499502 C239.513004,13.3587604 240.150251,13.613407 240.711028,13.9240758 C241.261609,14.2347447 241.705133,14.6116217 242.041599,15.0801714 C242.362772,15.5079777 242.520809,16.0631073 242.536103,16.7200955 C242.520809,17.0664148 242.454535,17.4636635 242.311792,17.9118415 C242.153755,18.4262277 241.893758,18.9100562 241.526704,19.3633271 C241.15965,19.8318769 240.639657,20.2087538 239.982018,20.5296085 C239.334575,20.8453703 238.498508,21.0083441 237.484011,21.0083441 C237.203622,21.0083441 236.892646,21.0032512 236.55618,20.9930653 C236.219713,20.9879724 235.862855,20.9268572 235.485605,20.8199057 C235.118551,20.7129541 234.726007,20.5448873 234.307973,20.3157054 C233.900135,20.0865235 233.471906,19.7554829 233.028382,19.3073049 C232.635838,18.925335 232.289176,18.5077146 232.018983,18.0646295 C231.728398,17.6113586 231.504088,17.1733664 231.320561,16.7455601 C231.137034,16.3126609 230.99429,15.9103193 230.902527,15.5334423 C230.805665,15.1616583 230.739392,14.8611753 230.703706,14.6319934 L230.270378,14.6319934 L230.270378,21.2477119 L230.734294,21.2477119 C230.826057,20.9777865 230.933115,20.8046269 231.04527,20.718047 C231.162523,20.6263742 231.351148,20.5907237 231.626439,20.5907237 C231.820162,20.5907237 232.105649,20.6365601 232.503291,20.7587905 C232.895834,20.865742 233.344456,20.9930653 233.844058,21.1152957 C234.358953,21.242619 234.904436,21.3597564 235.485605,21.4718009 C236.071872,21.5940313 236.663237,21.6500536 237.2597,21.6500536 C238.44243,21.6500536 239.518102,21.4616151 240.486717,21.089831 C241.450235,20.718047 242.2914,20.2087538 242.989823,19.5772303 C243.688245,18.9457067 244.233728,18.2123245 244.610978,17.3719908 C244.998424,16.531657 245.187049,15.635301 245.187049,14.6982015 C245.187049,13.7458232 245.00862,12.94114 244.661958,12.2892447 Z M88.215338,20.4735863 L79.324472,0 L78.177428,0 L69.765771,20.4735863 L67.558349,20.4735863 L67.558349,21.242619 L73.013181,21.242619 L73.013181,20.4735863 L70.591643,20.4735863 L73.614741,13.1754149 L80.532692,13.1754149 L83.703632,20.4735863 L81.190331,20.4735863 L81.190331,21.242619 L90.845893,21.242619 L90.845893,20.4735863 L88.215338,20.4735863 Z M80.226813,12.4063821 L73.915522,12.4063821 L76.9896,4.9044934 L80.226813,12.4063821 Z M137.6249,20.4786792 L128.71874,0 L127.581892,0 L119.170235,20.4786792 L116.957715,20.4786792 L116.957715,21.2477119 L122.422743,21.2477119 L122.422743,20.4786792 L119.996107,20.4786792 L123.019205,13.1754149 L129.937156,13.1754149 L131.925366,17.7437748 L133.102998,20.4786792 L130.589697,20.4786792 L130.589697,21.2477119 L140.255455,21.2477119 L140.255455,20.4786792 L137.6249,20.4786792 Z M129.641473,12.4063821 L123.319986,12.4063821 L126.394064,4.9044934 L129.641473,12.4063821 Z M41.293588,20.4735863 L32.3925254,0 L31.2607753,0 L22.8440205,20.4735863 L20.6416959,20.4735863 L20.6416959,21.242619 L26.0965278,21.242619 L26.0965278,20.4735863 L23.6749903,20.4735863 L26.6980887,13.1754149 L33.6160392,13.1754149 L36.7767829,20.4735863 L34.2685798,20.4735863 L34.2685798,21.242619 L43.92924,21.242619 L43.92924,20.4735863 L41.293588,20.4735863 Z M33.3152587,12.4063821 L26.9937712,12.4063821 L30.0678494,4.9044934 L33.3152587,12.4063821 Z M66.543852,0.8046832 L60.767848,0.8046832 L60.767848,1.568623 L63.439186,1.568623 L63.439186,14.4690196 L63.383108,14.4690196 L53.814211,0.8046832 L47.018612,0.8046832 L47.018612,1.568623 L49.307602,1.568623 L49.307602,20.4735863 L47.018612,20.4735863 L47.018612,21.242619 L47.033906,21.242619 L47.033906,21.2477119 L52.779323,21.2477119 L52.779323,20.4735863 L50.133474,20.4735863 L50.133474,2.841856 L50.189552,2.841856 L63.128209,21.2477119 L64.265058,21.2477119 L64.265058,1.568623 L66.528558,1.568623 L66.528558,1.2019319 L66.543852,1.2019319 L66.543852,0.8046832 Z M265.670708,0.8046832 L265.670708,6.0758678 L265.298556,6.0758678 C265.201694,5.7499201 265.033461,5.3322997 264.80915,4.8230065 C264.574644,4.3188063 264.258569,3.8298848 263.840535,3.3511492 C263.432697,2.8724136 262.89741,2.4547932 262.24487,2.0982879 C261.597427,1.7468756 260.797045,1.568623 259.869214,1.568623 L255.296331,1.568623 L255.296331,10.0738193 L256.907291,10.0738193 C257.610811,10.0738193 258.212372,9.9770536 258.701778,9.7784293 C259.186085,9.574712 259.599021,9.2895078 259.915096,8.9126308 C260.246464,8.5357539 260.516656,8.0926688 260.730771,7.5630039 C260.93469,7.0384319 261.108021,6.4476518 261.240569,5.7957565 L261.617819,5.7957565 L261.617819,15.0954502 L261.240569,15.0954502 C261.108021,14.5352277 260.949984,14.0055628 260.766457,13.4860837 C260.58293,12.9666046 260.338227,12.5133337 260.037447,12.121178 C259.726471,11.7239293 259.34922,11.4183533 258.895501,11.1891714 C258.446879,10.9599895 257.886102,10.847945 257.218267,10.847945 L255.296331,10.847945 L255.296331,20.4786792 L260.006859,20.4786792 C260.888809,20.4786792 261.684092,20.3309842 262.392711,20.0305012 C263.101329,19.7351112 263.733478,19.3276766 264.273863,18.7827329 C264.819346,18.253068 265.273066,17.6266373 265.64012,16.903441 C266.007174,16.1904305 266.282465,15.4163049 266.476188,14.5963429 L266.84834,14.5963429 L266.84834,21.2477119 L248.48034,21.2477119 L248.48034,20.4786792 L251.131287,20.4786792 L251.131287,1.568623 L248.48034,1.568623 L248.48034,0.8046832 L265.670708,0.8046832 Z" id="CG-Wordmark"></path>
        </g>
    </g>
</svg>